<svg xmlns="http://www.w3.org/2000/svg" xmlns:xlink="http://www.w3.org/1999/xlink" version="1.1" height="70" width="235.33021545410156" viewBox="0 0 235.33021545410156 70"><g id="SvgjsG1011" rel="mainfill" name="main_text" xmlns:name="mainText_mainfill" fill="#ffffff" transform="translate(85.00037271156907,-60.973602294921875)"><path d="M15.734 69.765625 l0.11133 0.11133 q0.408203125 0.482421875 0.7607421875 1.076171875 t0.64941 1.3359 q0.22265625 0.51953125 0.5009765625 0.9833984375 t0.46387 0.9834 q0.296875 0.81640625 0.4453125 1.484375 t0.18555 1.2617 t0.018555 1.2803 t-0.12988 1.54 q-0.07421875 0.7421875 -0.07421875 1.465820313 t-0.14844 1.4658 q-0.185546875 0.96484375 -0.5751953125 1.911132813 t-0.90918 1.7998 q-0.927734375 1.484375 -2.59765625 2.708984375 l-0.29688 0.14844 q-0.408203125 0.296875 -0.705078125 0.333984375 q-0.408203125 0.185546875 -0.779296875 0.3154296875 t-0.70508 0.2041 q-1.9296875 0.4453125 -3.970703125 0.3896484375 t-3.9707 -0.018555 q-0.705078125 0 -1.70703125 0.0185546875 t-1.5957 -0.35254 q-0.51953125 -0.259765625 -0.66796875 -1.001953125 q-0.037109375 -0.1484375 -0.037109375 -0.630859375 q0 -1.78125 0.037109375 -3.543945313 t0.11133 -3.5439 q0.07421875 -0.890625 -0.037109375 -1.836914063 t-0.11133 -1.874 l0 -3.8594 l0 -3.1172 q0 -2.2265625 0.556640625 -2.89453125 q0.59375 -0.630859375 1.818359375 -0.59375 q0.630859375 0.037109375 1.168945313 0.0185546875 t0.94629 -0.018555 q1.41015625 -0.037109375 2.875976563 0.037109375 t3.0244 0.14844 q3.04296875 0.185546875 5.34375 2.2265625 l0 0.037109 z M10.873 69.876625 l-0.037109 0 q-0.51953125 -0.07421875 -1.280273438 -0.07421875 t-1.7627 0.074219 q-1.818359375 0.111328125 -2.8203125 -0.037109375 q-1.6328125 -0.259765625 -2.00390625 0 q-0.556640625 0.408203125 -0.556640625 1.595703125 t0.037109 2.3379 t-0.037109 2.2637 q-0.185546875 2.783203125 -0.1298828125 5.510742188 t0.055664 5.4365 q0 0.630859375 0.4453125 1.001953125 q0.4453125 0.408203125 1.744140625 0.22265625 q0.037109375 0 0.0927734375 -0.0185546875 t0.092773 -0.018555 q0.7421875 -0.037109375 1.391601563 -0.0185546875 t1.2432 0.055664 q2.2265625 0.1484375 4.267578125 -0.22265625 q2.078125 -0.4453125 3.228515625 -2.708984375 q0.51953125 -1.001953125 0.9091796875 -1.9296875 t0.6123 -1.874 t0.27832 -1.9482 t-0.055664 -2.1895 q-0.22265625 -2.30078125 -1.484375 -4.564453125 q-0.630859375 -1.076171875 -1.688476563 -1.78125 t-2.5049 -1.0762 z M28.611328125 88.357425 q-0.037109375 -2.263671875 -0.0185546875 -4.52734375 t0.018555 -4.5273 l0 -1.2988 q0 -1.001953125 -0.0556640625 -2.022460938 t0.018555 -2.0225 q0.037109375 -1.11328125 0.037109375 -2.208007813 t0.037109 -2.208 q0 -1.3359375 0.630859375 -1.85546875 q0.482421875 -0.37109375 1.70703125 -0.37109375 q0.630859375 -0.037109375 1.094726563 -0.0556640625 t0.79785 -0.018555 q1.447265625 -0.037109375 2.89453125 0.0185546875 t2.8945 0.018555 q0.779296875 -0.037109375 1.55859375 -0.0556640625 t1.5215 0.055664 l1.8926 0.11133 q0.333984375 0.037109375 0.5751953125 0.037109375 t0.42676 0.074219 q0.779296875 0.408203125 0.7421875 1.150390625 q-0.037109375 0.333984375 -0.259765625 0.5380859375 t-0.50098 0.31543 t-0.5752 0.14844 t-0.51953 0.037109 q-2.263671875 0 -4.490234375 -0.111328125 q-0.22265625 -0.037109375 -0.556640625 -0.037109375 l-0.74219 0 l-2.1523 0 q-0.853515625 0 -1.521484375 0.0185546875 t-1.1133 0.018555 q-0.630859375 0.037109375 -1.0390625 0.1669921875 t-0.59375 0.42676 q-0.296875 0.4453125 -0.22265625 1.11328125 l0 0.51953 t-0.037109 0.4082 q-0.07421875 0.4453125 -0.111328125 0.9462890625 t0 1.0947 q0 1.0390625 0.81640625 1.744140625 q0.66796875 0.59375 2.412109375 0.482421875 q0.779296875 -0.037109375 1.540039063 -0.1298828125 t1.54 -0.055664 q0.333984375 0 0.8720703125 0.0185546875 t1.2803 -0.018555 q1.484375 -0.037109375 2.00390625 0.51953125 q0.185546875 0.259765625 0.1484375 0.853515625 q-0.111328125 0.66796875 -1.0390625 0.81640625 q-0.853515625 0.1484375 -1.373046875 0.1484375 q-0.66796875 0.037109375 -1.317382813 0.0185546875 t-1.3174 0.018555 q-0.81640625 0.07421875 -1.669921875 0.037109375 t-1.7813 -0.11133 q-0.111328125 0 -0.259765625 -0.0185546875 t-0.25977 -0.018555 l-0.037109 0 q-0.408203125 -0.07421875 -0.81640625 0.185546875 q-0.66796875 0.408203125 -0.7421875 1.41015625 q-0.07421875 0.96484375 0 1.669921875 q0.037109375 0.408203125 0.0556640625 0.7421875 t-0.018555 0.59375 q-0.07421875 0.556640625 -0.1298828125 1.094726563 t-0.12988 1.0947 q-0.111328125 1.41015625 0.37109375 2.115234375 q0.630859375 0.853515625 2.189453125 0.853515625 q1.224609375 0 2.486328125 -0.0556640625 t2.5234 -0.12988 q1.150390625 -0.037109375 2.356445313 0.07421875 t2.3936 0.11133 q0.4453125 0 1.1875 -0.0185546875 t1.1504 0.2041 q0.37109375 0.22265625 0.408203125 0.66796875 q0.408203125 1.3359375 -1.150390625 1.41015625 q-2.44921875 0.111328125 -4.805664063 0.07421875 t-4.7314 0 q-0.1484375 0 -0.2783203125 0.0185546875 t-0.24121 0.018555 l-1.4658 0 t-1.0205 -0.037109 q-0.259765625 0 -0.6123046875 -0.0185546875 t-0.79785 -0.055664 q-0.37109375 -0.037109375 -0.6123046875 -0.07421875 t-0.35254 -0.074219 q-1.11328125 -0.333984375 -1.11328125 -2.078125 z M56.332078125 81.306625 q0.037109375 0.927734375 0 1.85546875 t0 1.8184 q0.037109375 2.96875 0 4.453125 q0 0.66796875 -0.556640625 1.001953125 q-0.59375 0.296875 -1.0390625 0.037109375 q-0.4453125 -0.1484375 -0.51953125 -0.853515625 q-0.07421875 -1.1875 -0.111328125 -2.375 t-0.037109 -2.4121 q0.037109375 -1.484375 0.0556640625 -2.96875 t0.018555 -3.043 q0 -0.890625 0.0185546875 -1.799804688 t-0.018555 -1.7998 q0 -1.0390625 -0.0185546875 -2.170898438 t0.055664 -2.3936 q0.037109375 -0.22265625 0.037109375 -0.556640625 l0 -0.81641 q0 -0.779296875 0.037109375 -0.890625 q0.037109375 -0.333984375 0.630859375 -0.7421875 q0.482421875 -0.296875 1.966796875 -0.37109375 q0.7421875 -0.037109375 1.280273438 -0.0556640625 t0.90918 -0.018555 q1.001953125 -0.037109375 2.059570313 0.037109375 t2.1338 0.11133 q0.59375 0.037109375 1.317382813 0.0927734375 t1.5771 0.2041 q1.70703125 0.22265625 2.671875 1.001953125 l0.037109 0 q1.26171875 1.076171875 1.911132813 2.337890625 t0.5752 2.8203 q-0.037109375 1.076171875 -0.51953125 1.874023438 t-1.3359 1.3916 q-1.595703125 1.11328125 -3.48828125 1.521484375 q0.1484375 -0.07421875 -0.51953125 0.111328125 q-1.11328125 0.1484375 -2.245117188 0.0927734375 t-2.2451 0.092773 q-0.37109375 0.037109375 -0.8720703125 0.0556640625 t-1.2061 -0.018555 q-1.298828125 -0.07421875 -1.892578125 0.37109375 q-0.7421875 0.556640625 -0.66796875 2.00390625 z M62.492178125 76.593625 q1.447265625 0 2.8203125 -0.1484375 t2.6719 -1.1133 q1.373046875 -1.0390625 1.11328125 -2.44921875 q-0.296875 -1.41015625 -1.55859375 -2.30078125 q-0.296875 -0.22265625 -0.6865234375 -0.3896484375 t-0.79785 -0.31543 q-1.892578125 -0.408203125 -3.525390625 -0.185546875 q-0.81640625 0.111328125 -1.669921875 0.1669921875 t-1.7441 0.018555 q-0.4453125 0 -0.779296875 -0.0185546875 t-0.51953 -0.055664 q-0.22265625 -0.07421875 -0.408203125 0 q-0.927734375 0.22265625 -1.001953125 1.6328125 q-0.037109375 0.296875 -0.0556640625 0.779296875 t-0.018555 1.1133 q0.037109375 0.185546875 0.037109375 0.4638671875 l0 0.64941 q0.07421875 1.298828125 0.81640625 1.892578125 q0.705078125 0.630859375 2.44921875 0.556640625 q0.630859375 -0.037109375 1.243164063 -0.111328125 t1.2803 -0.18555 l0.33398 0 z M97.709375 69.134625 q-0.51953125 0.59375 -1.70703125 0.51953125 l-1.8555 -0.11133 q-0.556640625 -0.037109375 -1.076171875 -0.07421875 t-1.0762 -0.037109 q-1.11328125 -0.037109375 -1.6328125 0.482421875 q-0.408203125 0.482421875 -0.408203125 1.595703125 q0 0.51953125 0.0556640625 1.020507813 t0.055664 1.0205 q0.037109375 1.224609375 0.0556640625 2.133789063 t0.018555 1.54 q0 1.892578125 -0.22265625 3.78515625 q-0.111328125 0.890625 0 1.78125 t0.14844 1.7441 q0.037109375 0.96484375 0.0556640625 1.669921875 t0.018555 1.1875 l0 0.50098 t-0.037109 0.79785 q-0.07421875 1.001953125 -0.1484375 1.224609375 q-0.482421875 0.81640625 -1.26171875 0.59375 q-0.96484375 -0.185546875 -0.96484375 -1.41015625 q-0.037109375 -1.11328125 0.0556640625 -2.245117188 t0.16699 -2.2451 q0.111328125 -1.298828125 -0.0185546875 -2.634765625 t-0.12988 -2.6719 q0 -1.224609375 0.0927734375 -2.467773438 t0.12988 -2.4678 q0 -2.412109375 -0.779296875 -3.4140625 q-0.408203125 -0.51953125 -0.9833984375 -0.7978515625 t-1.2803 -0.35254 t-1.3174 -0.12988 t-1.2061 -0.055664 l-1.1318 0 t-1.0576 -0.22266 q-0.296875 -0.1484375 -0.37109375 -0.705078125 q-0.07421875 -0.408203125 0.111328125 -0.705078125 q0.259765625 -0.4453125 1.298828125 -0.556640625 q0.111328125 -0.037109375 0.408203125 -0.037109375 q1.55859375 -0.037109375 3.024414063 0.1298828125 t3.0244 0.055664 q0.630859375 -0.037109375 1.243164063 -0.111328125 t1.2803 -0.074219 l2.4678 0 t2.4678 -0.037109 q0.630859375 0 1.094726563 0.037109375 t0.79785 0.18555 q1.150390625 0.779296875 0.59375 1.55859375 z M114.6679375 90.509765 q-0.7421875 -0.22265625 -1.502929688 -0.5751953125 t-1.4844 -0.81641 t-1.3545 -1.0391 t-1.0762 -1.2432 q-0.59375 -0.927734375 -0.853515625 -1.911132813 t-0.74219 -2.0225 q-0.37109375 -0.81640625 -0.408203125 -1.78125 q-0.037109375 -0.4453125 -0.0927734375 -0.9091796875 t-0.055664 -0.90918 q-0.037109375 -0.4453125 -0.0556640625 -0.779296875 t-0.018555 -0.55664 q0 -0.705078125 0.0927734375 -1.465820313 t0.27832 -1.5771 q0.037109375 -0.259765625 0.22265625 -0.66796875 q0.37109375 -1.11328125 0.9462890625 -2.096679688 t1.3174 -1.8369 q1.447265625 -1.6328125 4.044921875 -2.89453125 q1.1875 -0.51953125 2.486328125 -0.482421875 q0.81640625 0.07421875 1.6328125 0.22265625 q0.66796875 0.111328125 1.168945313 0.1669921875 t0.87207 0.12988 q2.857421875 0.333984375 5.046875 2.5234375 q0.482421875 0.482421875 0.9091796875 1.057617188 t0.83496 1.2432 l0.18555 0.29688 q0.037109375 0.111328125 0.07421875 0.185546875 l0.074219 0.14844 q0.630859375 1.484375 1.150390625 3.7109375 q0.482421875 2.078125 0.1484375 3.822265625 q-0.22265625 1.001953125 -0.556640625 1.9296875 t-0.59375 1.8555 q-1.447265625 4.97265625 -6.53125 6.271484375 l-0.29688 0.074219 q-0.296875 0.07421875 -0.7421875 0.1484375 t-1.0391 0.14844 q-0.96484375 0.111328125 -1.985351563 0.037109375 t-2.0967 -0.4082 z M118.4164375 69.283625 q-2.00390625 0 -3.618164063 0.482421875 t-2.9131 1.7813 q-1.78125 1.78125 -2.263671875 3.952148438 t0.037109 4.8428 l0.33398 1.8184 q0.07421875 0.51953125 0.1484375 0.8349609375 t0.11133 0.38965 q0.22265625 0.81640625 0.890625 1.55859375 t1.2246 1.2988 q0.296875 0.333984375 0.59375 0.6494140625 t0.63086 0.5752 q0.556640625 0.482421875 1.85546875 0.890625 l0.037109 0 q0.705078125 0.185546875 1.577148438 0.1298828125 t1.9482 -0.31543 q0.51953125 -0.1484375 1.057617188 -0.2041015625 t1.0947 -0.2041 q1.373046875 -0.333984375 2.30078125 -1.484375 l0.037109 0 l0 -0.037109 q0.59375 -0.705078125 1.001953125 -1.78125 q0.37109375 -1.076171875 0.556640625 -1.373046875 q1.85546875 -3.63671875 0.556640625 -7.8671875 l-0.037109 -0.037109 q-0.1484375 -0.408203125 -0.296875 -0.779296875 t-0.4082 -0.74219 q-1.447265625 -2.189453125 -3.451171875 -3.154296875 q-0.07421875 -0.037109375 -0.333984375 -0.185546875 t-0.74219 -0.44531 q-0.66796875 -0.408203125 -1.892578125 -0.59375 l-0.037109 0 z"></path></g><g id="SvgjsG1012" rel="mainfill" name="main_text_2" xmlns:name="mainText2_mainfill" fill="#ffffff" transform="translate(85.11183905601501,-27.001022338867188)"><path d="M15.066 87.132825 q1.744140625 -1.001953125 2.041015625 0.66796875 q0.1484375 0.705078125 -0.7421875 1.373046875 q-0.408203125 0.296875 -0.7607421875 0.5009765625 t-0.64941 0.31543 q-0.853515625 0.37109375 -1.540039063 0.5380859375 t-1.2061 0.24121 q-0.96484375 0.07421875 -2.041015625 0.07421875 t-2.2637 -0.18555 q-2.412109375 -0.37109375 -3.896484375 -1.669921875 q-1.373046875 -1.150390625 -2.263671875 -2.783203125 t-1.4473 -3.3027 l-0.074219 -0.22266 q-0.333984375 -1.076171875 -0.2412109375 -2.393554688 t0.055664 -2.4678 q0 -0.890625 0.037109375 -1.577148438 t0.18555 -1.1689 q0.259765625 -0.927734375 1.1875 -2.5234375 q1.001953125 -1.78125 2.263671875 -3.080078125 t3.4141 -1.7441 q0.556640625 -0.07421875 1.9296875 -0.4453125 q0.408203125 -0.111328125 0.9091796875 -0.185546875 t1.1318 -0.037109 q0.482421875 0 1.131835938 0.111328125 t1.5029 0.29688 q0.59375 0.185546875 1.818359375 0.779296875 q1.150390625 0.482421875 1.373046875 1.298828125 q0.07421875 0.296875 -0.07421875 0.630859375 q-0.333984375 0.556640625 -0.779296875 0.66796875 q-0.259765625 0.07421875 -0.6494140625 0 t-0.94629 -0.37109 q-0.7421875 -0.37109375 -1.373046875 -0.630859375 t-1.2803 -0.38965 t-1.3359 -0.092773 t-1.5029 0.25977 q-1.9296875 0.59375 -2.708984375 1.001953125 q-0.81640625 0.4453125 -1.9296875 2.115234375 q-0.890625 1.298828125 -1.354492188 2.727539063 t-0.53809 2.9316 t0.24121 2.9873 t0.9834 2.8574 l0 0.037109 l0.037109 0 q1.595703125 2.96875 4.564453125 3.7109375 q2.15234375 0.51953125 3.33984375 0.22265625 q0.333984375 -0.037109375 0.630859375 -0.111328125 t0.63086 -0.14844 q1.26171875 -0.259765625 2.189453125 -0.81640625 z M25.642578125 88.357425 q-0.037109375 -2.263671875 -0.0185546875 -4.52734375 t0.018555 -4.5273 l0 -1.2988 q0 -1.001953125 -0.0556640625 -2.022460938 t0.018555 -2.0225 q0.037109375 -1.11328125 0.037109375 -2.208007813 t0.037109 -2.208 q0 -1.3359375 0.630859375 -1.85546875 q0.482421875 -0.37109375 1.70703125 -0.37109375 q0.630859375 -0.037109375 1.094726563 -0.0556640625 t0.79785 -0.018555 q1.447265625 -0.037109375 2.89453125 0.0185546875 t2.8945 0.018555 q0.779296875 -0.037109375 1.55859375 -0.0556640625 t1.5215 0.055664 l1.8926 0.11133 q0.333984375 0.037109375 0.5751953125 0.037109375 t0.42676 0.074219 q0.779296875 0.408203125 0.7421875 1.150390625 q-0.037109375 0.333984375 -0.259765625 0.5380859375 t-0.50098 0.31543 t-0.5752 0.14844 t-0.51953 0.037109 q-2.263671875 0 -4.490234375 -0.111328125 q-0.22265625 -0.037109375 -0.556640625 -0.037109375 l-0.74219 0 l-2.1523 0 q-0.853515625 0 -1.521484375 0.0185546875 t-1.1133 0.018555 q-0.630859375 0.037109375 -1.0390625 0.1669921875 t-0.59375 0.42676 q-0.296875 0.4453125 -0.22265625 1.11328125 l0 0.51953 t-0.037109 0.4082 q-0.07421875 0.4453125 -0.111328125 0.9462890625 t0 1.0947 q0 1.0390625 0.81640625 1.744140625 q0.66796875 0.59375 2.412109375 0.482421875 q0.779296875 -0.037109375 1.540039063 -0.1298828125 t1.54 -0.055664 q0.333984375 0 0.8720703125 0.0185546875 t1.2803 -0.018555 q1.484375 -0.037109375 2.00390625 0.51953125 q0.185546875 0.259765625 0.1484375 0.853515625 q-0.111328125 0.66796875 -1.0390625 0.81640625 q-0.853515625 0.1484375 -1.373046875 0.1484375 q-0.66796875 0.037109375 -1.317382813 0.0185546875 t-1.3174 0.018555 q-0.81640625 0.07421875 -1.669921875 0.037109375 t-1.7813 -0.11133 q-0.111328125 0 -0.259765625 -0.0185546875 t-0.25977 -0.018555 l-0.037109 0 q-0.408203125 -0.07421875 -0.81640625 0.185546875 q-0.66796875 0.408203125 -0.7421875 1.41015625 q-0.07421875 0.96484375 0 1.669921875 q0.037109375 0.408203125 0.0556640625 0.7421875 t-0.018555 0.59375 q-0.07421875 0.556640625 -0.1298828125 1.094726563 t-0.12988 1.0947 q-0.111328125 1.41015625 0.37109375 2.115234375 q0.630859375 0.853515625 2.189453125 0.853515625 q1.224609375 0 2.486328125 -0.0556640625 t2.5234 -0.12988 q1.150390625 -0.037109375 2.356445313 0.07421875 t2.3936 0.11133 q0.4453125 0 1.1875 -0.0185546875 t1.1504 0.2041 q0.37109375 0.22265625 0.408203125 0.66796875 q0.408203125 1.3359375 -1.150390625 1.41015625 q-2.44921875 0.111328125 -4.805664063 0.07421875 t-4.7314 0 q-0.1484375 0 -0.2783203125 0.0185546875 t-0.24121 0.018555 l-1.4658 0 t-1.0205 -0.037109 q-0.259765625 0 -0.6123046875 -0.0185546875 t-0.79785 -0.055664 q-0.37109375 -0.037109375 -0.6123046875 -0.07421875 t-0.35254 -0.074219 q-1.11328125 -0.333984375 -1.11328125 -2.078125 z M53.289028125 89.804725 q-0.1484375 0.66796875 -1.150390625 0.779296875 q-1.0390625 -0.037109375 -1.0390625 -1.150390625 q0 -2.89453125 -0.1298828125 -5.844726563 t0.16699 -5.8447 l0 -0.037109 q0 -0.853515625 0.0185546875 -1.669921875 t-0.055664 -1.5957 l-0.29688 -2.8203 q-0.111328125 -1.1875 0.37109375 -2.560546875 q0.37109375 -0.96484375 1.001953125 -1.150390625 q0.51953125 -0.111328125 1.076171875 0.51953125 q0.51953125 0.556640625 0.779296875 0.96484375 q0.482421875 0.705078125 0.9833984375 1.26171875 t0.9834 1.0391 q0.408203125 0.482421875 0.8349609375 0.8349609375 t0.83496 0.79785 q0.37109375 0.37109375 0.81640625 0.9462890625 t0.96484 1.3545 l1.6328 2.5234 q0.185546875 0.259765625 0.3896484375 0.59375 t0.50098 0.7793 l0.037109 0.037109 q0.779296875 1.0390625 1.6328125 1.966796875 q0.408203125 0.4453125 0.81640625 0.8349609375 t0.85352 0.79785 q0.408203125 0.482421875 0.96484375 0.296875 q0.853515625 -0.22265625 0.81640625 -1.70703125 q0 -0.37109375 -0.0556640625 -0.779296875 t-0.055664 -0.81641 q-0.037109375 -0.296875 -0.07421875 -0.5751953125 t-0.037109 -0.6123 q0 -0.1484375 -0.0185546875 -0.333984375 t-0.018555 -0.4082 q0.1484375 -3.265625 -0.22265625 -6.0859375 q-0.037109375 -0.185546875 -0.037109375 -0.6123046875 t0.074219 -1.0947 q0.037109375 -0.81640625 0.22265625 -1.744140625 q0.111328125 -1.3359375 1.1875 -1.3359375 q1.1875 0 1.1875 1.41015625 q0.037109375 1.150390625 0.0927734375 2.319335938 t0.055664 2.3193 q0.037109375 1.70703125 -0.07421875 3.4140625 t-0.037109 3.4141 q0.07421875 1.150390625 0.0556640625 2.263671875 t-0.055664 2.2266 q0 0.630859375 0.0185546875 1.243164063 t0.018555 1.1689 l0 1.4844 q-0.037109375 0.22265625 -0.0556640625 0.4453125 t-0.018555 0.4082 q-0.037109375 0.037109375 -0.037109375 0.07421875 t-0.037109 0.037109 q-0.408203125 0.556640625 -1.26171875 0.556640625 q-1.001953125 0.07421875 -1.521484375 -0.630859375 q-0.556640625 -0.705078125 -1.020507813 -1.521484375 t-1.0205 -1.5957 q-0.66796875 -0.890625 -1.465820313 -1.911132813 t-1.7627 -2.1709 q-0.37109375 -0.408203125 -1.0390625 -1.484375 l-1.2988 -2.0781 q-0.482421875 -0.7421875 -0.96484375 -1.502929688 t-1.002 -1.4658 q-0.22265625 -0.259765625 -0.482421875 -0.5751953125 t-0.55664 -0.53809 t-0.66797 -0.33398 t-0.74219 0 q-1.001953125 0.296875 -0.927734375 2.041015625 q0.037109375 1.26171875 0.0556640625 2.375 t0.092773 2.0781 q0.07421875 0.779296875 -0.0185546875 1.55859375 t-0.092773 1.5215 l0 2.8945 q0 0.927734375 -0.0556640625 1.669921875 t-0.12988 1.3359 z M97.48671875 69.134625 q-0.51953125 0.59375 -1.70703125 0.51953125 l-1.8555 -0.11133 q-0.556640625 -0.037109375 -1.076171875 -0.07421875 t-1.0762 -0.037109 q-1.11328125 -0.037109375 -1.6328125 0.482421875 q-0.408203125 0.482421875 -0.408203125 1.595703125 q0 0.51953125 0.0556640625 1.020507813 t0.055664 1.0205 q0.037109375 1.224609375 0.0556640625 2.133789063 t0.018555 1.54 q0 1.892578125 -0.22265625 3.78515625 q-0.111328125 0.890625 0 1.78125 t0.14844 1.7441 q0.037109375 0.96484375 0.0556640625 1.669921875 t0.018555 1.1875 l0 0.50098 t-0.037109 0.79785 q-0.07421875 1.001953125 -0.1484375 1.224609375 q-0.482421875 0.81640625 -1.26171875 0.59375 q-0.96484375 -0.185546875 -0.96484375 -1.41015625 q-0.037109375 -1.11328125 0.0556640625 -2.245117188 t0.16699 -2.2451 q0.111328125 -1.298828125 -0.0185546875 -2.634765625 t-0.12988 -2.6719 q0 -1.224609375 0.0927734375 -2.467773438 t0.12988 -2.4678 q0 -2.412109375 -0.779296875 -3.4140625 q-0.408203125 -0.51953125 -0.9833984375 -0.7978515625 t-1.2803 -0.35254 t-1.3174 -0.12988 t-1.2061 -0.055664 l-1.1318 0 t-1.0576 -0.22266 q-0.296875 -0.1484375 -0.37109375 -0.705078125 q-0.07421875 -0.408203125 0.111328125 -0.705078125 q0.259765625 -0.4453125 1.298828125 -0.556640625 q0.111328125 -0.037109375 0.408203125 -0.037109375 q1.55859375 -0.037109375 3.024414063 0.1298828125 t3.0244 0.055664 q0.630859375 -0.037109375 1.243164063 -0.111328125 t1.2803 -0.074219 l2.4678 0 t2.4678 -0.037109 q0.630859375 0 1.094726563 0.037109375 t0.79785 0.18555 q1.150390625 0.779296875 0.59375 1.55859375 z M106.80078125 88.357425 q-0.037109375 -2.263671875 -0.0185546875 -4.52734375 t0.018555 -4.5273 l0 -1.2988 q0 -1.001953125 -0.0556640625 -2.022460938 t0.018555 -2.0225 q0.037109375 -1.11328125 0.037109375 -2.208007813 t0.037109 -2.208 q0 -1.3359375 0.630859375 -1.85546875 q0.482421875 -0.37109375 1.70703125 -0.37109375 q0.630859375 -0.037109375 1.094726563 -0.0556640625 t0.79785 -0.018555 q1.447265625 -0.037109375 2.89453125 0.0185546875 t2.8945 0.018555 q0.779296875 -0.037109375 1.55859375 -0.0556640625 t1.5215 0.055664 l1.8926 0.11133 q0.333984375 0.037109375 0.5751953125 0.037109375 t0.42676 0.074219 q0.779296875 0.408203125 0.7421875 1.150390625 q-0.037109375 0.333984375 -0.259765625 0.5380859375 t-0.50098 0.31543 t-0.5752 0.14844 t-0.51953 0.037109 q-2.263671875 0 -4.490234375 -0.111328125 q-0.22265625 -0.037109375 -0.556640625 -0.037109375 l-0.74219 0 l-2.1523 0 q-0.853515625 0 -1.521484375 0.0185546875 t-1.1133 0.018555 q-0.630859375 0.037109375 -1.0390625 0.1669921875 t-0.59375 0.42676 q-0.296875 0.4453125 -0.22265625 1.11328125 l0 0.51953 t-0.037109 0.4082 q-0.07421875 0.4453125 -0.111328125 0.9462890625 t0 1.0947 q0 1.0390625 0.81640625 1.744140625 q0.66796875 0.59375 2.412109375 0.482421875 q0.779296875 -0.037109375 1.540039063 -0.1298828125 t1.54 -0.055664 q0.333984375 0 0.8720703125 0.0185546875 t1.2803 -0.018555 q1.484375 -0.037109375 2.00390625 0.51953125 q0.185546875 0.259765625 0.1484375 0.853515625 q-0.111328125 0.66796875 -1.0390625 0.81640625 q-0.853515625 0.1484375 -1.373046875 0.1484375 q-0.66796875 0.037109375 -1.317382813 0.0185546875 t-1.3174 0.018555 q-0.81640625 0.07421875 -1.669921875 0.037109375 t-1.7813 -0.11133 q-0.111328125 0 -0.259765625 -0.0185546875 t-0.25977 -0.018555 l-0.037109 0 q-0.408203125 -0.07421875 -0.81640625 0.185546875 q-0.66796875 0.408203125 -0.7421875 1.41015625 q-0.07421875 0.96484375 0 1.669921875 q0.037109375 0.408203125 0.0556640625 0.7421875 t-0.018555 0.59375 q-0.07421875 0.556640625 -0.1298828125 1.094726563 t-0.12988 1.0947 q-0.111328125 1.41015625 0.37109375 2.115234375 q0.630859375 0.853515625 2.189453125 0.853515625 q1.224609375 0 2.486328125 -0.0556640625 t2.5234 -0.12988 q1.150390625 -0.037109375 2.356445313 0.07421875 t2.3936 0.11133 q0.4453125 0 1.1875 -0.0185546875 t1.1504 0.2041 q0.37109375 0.22265625 0.408203125 0.66796875 q0.408203125 1.3359375 -1.150390625 1.41015625 q-2.44921875 0.111328125 -4.805664063 0.07421875 t-4.7314 0 q-0.1484375 0 -0.2783203125 0.0185546875 t-0.24121 0.018555 l-1.4658 0 t-1.0205 -0.037109 q-0.259765625 0 -0.6123046875 -0.0185546875 t-0.79785 -0.055664 q-0.37109375 -0.037109375 -0.6123046875 -0.07421875 t-0.35254 -0.074219 q-1.11328125 -0.333984375 -1.11328125 -2.078125 z M147.02703125 68.726625 q0.779296875 0.779296875 1.243164063 1.70703125 l0.94629 1.8926 q0.51953125 1.076171875 0.3154296875 2.170898438 t-1.2061 2.1338 q-0.779296875 0.81640625 -2.59765625 1.298828125 q-0.66796875 0.185546875 -1.428710938 0.3896484375 t-1.0576 0.87207 q-0.22265625 0.630859375 0.111328125 1.298828125 q0.37109375 0.705078125 0.59375 1.150390625 t0.37109 0.66797 q0.185546875 0.37109375 0.482421875 0.8349609375 t0.70508 1.0576 q0.853515625 1.1875 1.799804688 2.2265625 t1.9111 2.0039 l0.18555 0.18555 q0.81640625 0.81640625 0.037109375 1.595703125 q-0.853515625 0.853515625 -1.6328125 0.037109375 l-1.1133 -1.1133 t-0.89063 -0.96484 q-0.890625 -1.11328125 -1.669921875 -2.337890625 q-0.556640625 -0.81640625 -1.131835938 -1.577148438 t-1.0947 -1.6514 q-1.484375 -2.671875 -3.673828125 -3.525390625 q-2.337890625 -0.853515625 -3.4140625 0.66796875 q-0.333984375 0.51953125 -0.333984375 1.150390625 l0 8.0527 l0 0.48242 q0 1.11328125 -1.150390625 1.150390625 q-1.150390625 -0.037109375 -1.150390625 -1.41015625 q0 -0.853515625 0.0556640625 -1.762695313 t0.092773 -1.9482 q0.037109375 -0.705078125 -0.0185546875 -1.447265625 t-0.055664 -1.4473 t0.037109 -1.4102 t0.037109 -1.4102 q0.037109375 -1.669921875 -0.111328125 -3.451171875 q0 -1.224609375 0.0556640625 -2.486328125 t0.018555 -2.5605 q-0.037109375 -0.66796875 -0.037109375 -1.502929688 t0.22266 -1.5029 q0.66796875 -0.890625 3.154296875 -0.890625 l1.1504 0 q1.3359375 0 2.690429688 0.111328125 t2.6904 0.037109 q3.080078125 -0.1484375 4.861328125 1.224609375 z M136.59963125 76.742625 q1.41015625 0.037109375 2.486328125 0.037109375 t1.8184 -0.074219 q0.705078125 -0.07421875 1.577148438 -0.185546875 t1.9111 -0.29688 q2.115234375 -0.4453125 2.74609375 -1.966796875 q0.259765625 -0.556640625 0.185546875 -1.224609375 t-0.42676 -1.2246 t-0.89063 -0.94629 t-1.1689 -0.66797 t-1.2246 -0.38965 q-1.55859375 -0.296875 -3.098632813 -0.2412109375 t-3.0986 -0.018555 q-0.296875 0 -0.5751953125 -0.0185546875 t-0.5752 -0.018555 q-0.779296875 -0.037109375 -1.1875 0.408203125 q-0.333984375 0.37109375 -0.259765625 1.0390625 q0.037109375 0.185546875 0.037109375 0.779296875 q-0.037109375 0.556640625 -0.1298828125 1.076171875 t-0.12988 1.0391 q-0.22265625 1.447265625 0.333984375 2.15234375 q0.482421875 0.66796875 1.669921875 0.7421875 z"></path></g><defs id="SvgjsDefs1010"></defs><g id="SvgjsG1013" rel="mainfill" name="symbol" xmlns:name="symbol_mainfill" fill="#273428" transform="translate(-6.666666666666667,-6.666666666666667) scale(0.8333333333333334)"><title xmlns="http://www.w3.org/2000/svg">apartment Icons</title><path xmlns="http://www.w3.org/2000/svg" d="M90,92H10a2,2,0,0,1-2-2V60a2,2,0,0,1,4,0V88H88V12H12V40a2,2,0,0,1-4,0V10a2,2,0,0,1,2-2H90a2,2,0,0,1,2,2V90A2,2,0,0,1,90,92Z"></path><path xmlns="http://www.w3.org/2000/svg" d="M90,42H50a2,2,0,0,1-2-2V30a2,2,0,0,1,4,0v8H90a2,2,0,0,1,0,4Z"></path><path xmlns="http://www.w3.org/2000/svg" d="M50,22a2,2,0,0,1-2-2V10a2,2,0,0,1,4,0V20A2,2,0,0,1,50,22Z"></path><path xmlns="http://www.w3.org/2000/svg" d="M90,92H50a2,2,0,0,1-2-2V58a2,2,0,0,1,2-2H60a2,2,0,0,1,0,4H52V88H88V60H70a2,2,0,0,1,0-4H90a2,2,0,0,1,2,2V90A2,2,0,0,1,90,92Z"></path></g></svg>